<svg width="32" height="32" viewBox="0 0 32 32" fill="none" xmlns="http://www.w3.org/2000/svg">
  <rect width="32" height="32" rx="6" fill="#2D2D2D"/>
  <g transform="translate(8, 8)">
    <!-- Musical note -->
    <path d="M12 2L12 14C12 15.1046 11.1046 16 10 16C8.89543 16 8 15.1046 8 14C8 12.8954 8.89543 12 10 12C10.3333 12 10.6667 12.0833 11 12.25L11 6L15 5L15 3L12 2Z" fill="#FFD700"/>
    <!-- Staff lines -->
    <line x1="2" y1="6" x2="14" y2="6" stroke="#FFD700" stroke-width="0.5"/>
    <line x1="2" y1="8" x2="14" y2="8" stroke="#FFD700" stroke-width="0.5"/>
    <line x1="2" y1="10" x2="14" y2="10" stroke="#FFD700" stroke-width="0.5"/>
    <line x1="2" y1="12" x2="14" y2="12" stroke="#FFD700" stroke-width="0.5"/>
    <line x1="2" y1="14" x2="14" y2="14" stroke="#FFD700" stroke-width="0.5"/>
  </g>
</svg>

